<?xml version="1.0" encoding="utf-8"?>
<!-- Generator: Adobe Illustrator 22.0.1, SVG Export Plug-In . SVG Version: 6.00 Build 0)  -->
<svg version="1.1" xmlns="http://www.w3.org/2000/svg" xmlns:xlink="http://www.w3.org/1999/xlink" x="0px" y="0px"
	 viewBox="0 0 420.7 185" style="enable-background:new 0 0 420.7 185;" xml:space="preserve">
<style type="text/css">
	.st0{display:none;}
	.st1{display:inline;fill:#1D2240;}
	.st2{fill:#3B4474;}
	.st3{fill:#28305A;}
	.st4{fill:#C2C8EB;}
	.st5{fill:#28305A;stroke:#C2C8EB;stroke-width:0.75;stroke-miterlimit:10;}
</style>
<g id="Layer_3" class="st0">
	<rect x="-189.9" y="-189.3" class="st1" width="841.9" height="606.2"/>
</g>
<g id="Layer_1">
	<g>
		<path class="st2" d="M23.6,183.4L2.9,123.2c-0.1-0.4,0-0.8,0.3-1.1l37.7-30.6c0.5-0.4,0.5-1.2,0-1.6L20.2,73.6
			c-0.4-0.3-0.5-1-0.2-1.4l45.5-59.9c0.7-0.9,2-0.2,1.8,0.8L50.5,81.4c-0.2,0.9,0.9,1.6,1.6,1l12-9.8c0.7-0.6,1.8,0.1,1.6,1
			l-8.1,36.6c-0.2,0.8,0.7,1.5,1.5,1.1l11.5-6.6c0.3-0.1,0.4-0.4,0.5-0.7l7.8-39.3c0-0.2,0.2-0.4,0.3-0.6l13.3-11.3
			c0.2-0.1,0.3-0.3,0.3-0.6l9.7-47.4c0.2-1,1.6-1.1,1.9-0.1L116.8,38c0.1,0.4,0,0.8-0.3,1.1L97.6,55.1c-0.2,0.1-0.3,0.3-0.3,0.6
			l-6.4,31.5c-0.2,1,1.1,1.7,1.8,0.8l28.1-37.4c0.6-0.8,2-0.3,1.8,0.8l-4.6,25.3c-0.2,1,1.2,1.6,1.8,0.8L148,38.1
			c0.5-0.7,1.7-0.5,1.8,0.4l1.8,11.3c0.1,0.9,1.3,1.1,1.8,0.4l10.5-14c0.5-0.7,1.6-0.4,1.8,0.4l4.3,23.9c0.2,1,1.6,1.1,1.9,0.1
			l12.6-39c0.3-1,1.7-0.9,1.9,0.1l11.4,63c0.1,0.5-0.3,1.4-0.8,1.2l-3.5-1.6c-0.8-0.3-1.1-1.6-1.2-2.2l-7.2-39.8
			c-0.2-1-1.6-1.1-1.9-0.1l-12.6,39c-0.3,1-1.7,0.9-1.9-0.1l-5.8-32.3c-0.2-0.9-1.3-1.1-1.8-0.4l-7.7,10.2c-0.2,0.2-0.2,0.5-0.2,0.8
			l3.1,19.5c0.1,0.5-0.2,0.9-0.6,1.1l-32.9,14.1c-0.9,0.4-1.8-0.7-1.2-1.5l26-34.6c0.2-0.2,0.2-0.5,0.2-0.8l-1-6.1
			c-0.1-0.9-1.3-1.1-1.8-0.4l-34.2,47.4c-0.6,0.9-2,0.3-1.8-0.8l4.8-26.2c0.2-1-1.1-1.6-1.8-0.8l-28.7,38.2c-0.6,0.9-2,0.2-1.8-0.8
			l9.1-44.5c0.2-0.9-0.9-1.6-1.6-1l-5.1,4.4c-0.2,0.1-0.3,0.3-0.3,0.6l-7.9,39.8c-0.1,0.3-0.2,0.5-0.5,0.7l-23.3,13.4
			c-0.8,0.4-1.7-0.2-1.5-1.1l7.4-33.7c0.2-0.9-0.9-1.6-1.6-1l-8.1,6.6c-0.2,0.1-0.3,0.3-0.3,0.5l-22.3,90.7
			C25.3,184.3,23.9,184.3,23.6,183.4z M8.8,124.9l14,40.8c0.3,0.9,1.7,0.9,1.9-0.1l16-65.2c0.2-0.9-0.9-1.6-1.6-1l-30,24.4
			C8.8,124,8.6,124.5,8.8,124.9z M27.1,72.7L43,85.2c0.6,0.4,1.4,0.2,1.6-0.5l12.1-49.2c0.3-1.1-1.1-1.7-1.8-0.8L27,71.4
			C26.6,71.8,26.7,72.4,27.1,72.7z M147.5,66.5l-10.7,14.2c-0.6,0.8,0.3,1.9,1.2,1.5l12.1-5.2c0.4-0.2,0.7-0.6,0.6-1.1l-1.4-9
			C149.2,66.1,148.1,65.8,147.5,66.5z M104,23.1l-4.4,21.4c-0.2,0.9,0.9,1.6,1.6,1l9.4-8c0.3-0.3,0.4-0.7,0.3-1.1l-5-13.5
			C105.5,22,104.2,22.1,104,23.1z"/>
	</g>
	<g>
		<path class="st2" d="M128.8,39.7l-4.2,2.5c-0.8,0.5-1.8-0.4-1.4-1.3l8.2-17.8c0.2-0.5,0.7-1,1.2-1.3l4-2.3
			c0.8-0.5,1.8,0.4,1.4,1.3l-8.3,18C129.5,39.2,129.2,39.5,128.8,39.7z"/>
	</g>
	<g>
		<g>
			<path class="st3" d="M22.2,180c-0.1,0-0.5,0-0.6-0.4L0.9,119.4c-0.1-0.2,0-0.5,0.2-0.7l37.7-30.6c0.3-0.3,0.5-0.7,0.5-1.1
				c0-0.4-0.2-0.8-0.5-1.1L18,69.7c-0.3-0.2-0.3-0.6-0.1-0.9L63.4,9c0.2-0.2,0.3-0.3,0.5-0.3c0.2,0,0.4,0.1,0.5,0.3
				c0.1,0.1,0.2,0.3,0.1,0.5L47.8,77.6c-0.1,0.4,0,0.8,0.2,1.2c0.3,0.3,0.7,0.5,1.1,0.5c0.3,0,0.6-0.1,0.9-0.3l12-9.8
				c0.1-0.1,0.2-0.1,0.4-0.1c0.2,0,0.4,0.1,0.5,0.2c0.1,0.1,0.2,0.3,0.1,0.5L55,106.5c-0.1,0.4,0,0.8,0.3,1.2
				c0.3,0.3,0.7,0.5,1.1,0.5c0.2,0,0.5-0.1,0.7-0.2l11.5-6.6c0.3-0.2,0.6-0.5,0.7-0.9l7.8-39.3c0-0.1,0.1-0.3,0.2-0.4l13.3-11.3
				c0.2-0.2,0.4-0.5,0.5-0.8l9.7-47.4c0.1-0.4,0.4-0.5,0.6-0.5c0.1,0,0.4,0,0.6,0.4L114,34.4c0.1,0.2,0,0.5-0.2,0.7L95,51.2
				c-0.2,0.2-0.4,0.5-0.5,0.8l-6.4,31.5c-0.1,0.4,0,0.8,0.3,1.1c0.3,0.3,0.7,0.5,1.1,0.5c0.4,0,0.8-0.2,1.1-0.6l28.1-37.4
				c0.2-0.2,0.4-0.3,0.5-0.3c0.2,0,0.4,0.1,0.5,0.2c0.1,0.1,0.2,0.3,0.1,0.5l-4.6,25.3c-0.1,0.4,0,0.8,0.3,1.1
				c0.3,0.3,0.7,0.5,1.1,0.5c0.4,0,0.8-0.2,1.1-0.6L146,34.7c0.2-0.2,0.4-0.3,0.5-0.3c0.3,0,0.6,0.2,0.6,0.5l1.8,11.3
				c0.1,0.7,0.7,1.2,1.4,1.2c0.4,0,0.8-0.2,1.1-0.5l10.5-14c0.2-0.2,0.4-0.3,0.5-0.3c0.3,0,0.6,0.2,0.6,0.5l4.3,23.9
				c0.1,0.7,0.7,1.1,1.4,1.1c0.6,0,1.1-0.4,1.3-1l12.6-39c0.1-0.4,0.5-0.4,0.6-0.4c0.2,0,0.5,0.1,0.6,0.5l11.4,63
				c0,0.2,0,0.5-0.2,0.6c-0.1,0.1-0.1,0.1-0.1,0.1l-3.5-1.6c-0.5-0.2-0.9-1.2-1-1.9l-7.2-39.8c-0.1-0.7-0.7-1.1-1.4-1.1
				c-0.6,0-1.1,0.4-1.3,1l-12.6,39c-0.1,0.4-0.5,0.4-0.6,0.4c-0.2,0-0.5-0.1-0.6-0.5l-5.8-32.3c-0.1-0.7-0.7-1.1-1.4-1.1
				c-0.4,0-0.8,0.2-1.1,0.5l-7.7,10.2c-0.2,0.3-0.3,0.7-0.3,1l3.1,19.5c0,0.3-0.1,0.6-0.4,0.7l-32.9,14.1c-0.1,0-0.2,0.1-0.3,0.1
				c-0.2,0-0.4-0.1-0.6-0.4c-0.1-0.1-0.1-0.4,0.1-0.6l26-34.6c0.2-0.3,0.3-0.7,0.3-1l-1-6.1c-0.1-0.7-0.7-1.2-1.4-1.2
				c-0.4,0-0.8,0.2-1.1,0.6l-34.2,47.4c-0.2,0.2-0.4,0.3-0.5,0.3c-0.2,0-0.4-0.1-0.5-0.2c-0.1-0.1-0.2-0.3-0.1-0.5l4.8-26.2
				c0.1-0.4,0-0.8-0.3-1.1c-0.3-0.3-0.7-0.5-1.1-0.5c-0.4,0-0.8,0.2-1.1,0.6l-28.7,38.2c-0.2,0.2-0.4,0.3-0.5,0.3
				c-0.2,0-0.4-0.1-0.5-0.2c-0.1-0.1-0.2-0.3-0.1-0.5l9.1-44.5c0.1-0.4,0-0.8-0.3-1.1c-0.3-0.3-0.7-0.5-1.1-0.5
				c-0.3,0-0.6,0.1-0.9,0.3l-5.1,4.4c-0.2,0.2-0.4,0.5-0.5,0.8l-7.9,39.8c0,0.2-0.1,0.3-0.3,0.4l-23.3,13.4
				c-0.1,0.1-0.2,0.1-0.3,0.1c-0.2,0-0.4-0.1-0.5-0.2c-0.1-0.1-0.2-0.3-0.1-0.5l7.4-33.7c0.1-0.4,0-0.8-0.3-1.2
				c-0.3-0.3-0.7-0.5-1.1-0.5c-0.3,0-0.6,0.1-0.9,0.3l-8.1,6.6c-0.2,0.2-0.4,0.5-0.5,0.7l-22.3,90.7C22.7,179.9,22.4,180,22.2,180z
				 M37.4,95.1c-0.3,0-0.6,0.1-0.9,0.3l-30,24.4c-0.4,0.4-0.6,1-0.4,1.5l14,40.8c0.2,0.6,0.7,0.9,1.3,0.9c0.6,0,1.2-0.4,1.3-1
				l16-65.2c0.1-0.4,0-0.8-0.2-1.2C38.2,95.3,37.8,95.1,37.4,95.1z M53.3,30.2c-0.4,0-0.8,0.2-1.1,0.5l-28,36.8
				c-0.5,0.6-0.3,1.5,0.2,1.9l15.9,12.5c0.2,0.2,0.5,0.3,0.8,0.3c0.6,0,1.2-0.4,1.3-1l12.1-49.2c0.1-0.4,0-0.8-0.2-1.2
				C54.2,30.4,53.8,30.2,53.3,30.2z M146,62.1c-0.4,0-0.8,0.2-1.1,0.5l-10.7,14.2c-0.3,0.4-0.4,1-0.1,1.4c0.2,0.5,0.7,0.8,1.2,0.8
				c0,0,0,0,0,0c0.2,0,0.4,0,0.6-0.1l12.1-5.2c0.6-0.2,0.9-0.9,0.8-1.5l-1.4-9C147.2,62.5,146.6,62.1,146,62.1z M102.6,18.3
				c-0.7,0-1.2,0.5-1.4,1.1l-4.4,21.4c-0.1,0.4,0,0.8,0.3,1.1c0.3,0.3,0.7,0.5,1.1,0.5c0.3,0,0.6-0.1,0.9-0.3l9.4-8
				c0.4-0.4,0.6-1,0.4-1.5l-5-13.5C103.7,18.6,103.2,18.3,102.6,18.3z"/>
			<path class="st4" d="M101.2,1.2c0.1,0,0.2,0.1,0.2,0.2l12.3,33.2c0,0.1,0,0.2-0.1,0.3L94.8,50.9c-0.3,0.3-0.5,0.6-0.6,1
				l-6.4,31.5c-0.1,0.5,0,1,0.3,1.4c0.3,0.4,0.9,0.7,1.4,0.7c0.5,0,1-0.3,1.4-0.7l28.1-37.4c0.1-0.1,0.1-0.1,0.2-0.1
				c0.1,0,0.2,0,0.2,0.1c0,0.1,0.1,0.1,0,0.2l-4.6,25.3c-0.1,0.5,0,1,0.4,1.4c0.3,0.4,0.8,0.6,1.4,0.6c0.6,0,1.1-0.3,1.4-0.7
				l28.4-39.3c0,0,0.1-0.1,0.2-0.1c0,0,0.2,0,0.3,0.2l1.8,11.3c0.1,0.9,0.9,1.5,1.7,1.5c0.6,0,1.1-0.3,1.4-0.7l10.5-14
				c0,0,0.1-0.1,0.2-0.1c0,0,0.2,0,0.3,0.2l4.3,23.9c0.2,0.8,0.9,1.4,1.7,1.4c0.8,0,1.4-0.5,1.7-1.2l12.6-39c0,0,0.1-0.2,0.2-0.2
				c0.1,0,0.2,0,0.2,0.2l11.4,63c0,0.1,0,0.1,0,0.2l-3.3-1.5c-0.3-0.1-0.6-0.8-0.8-1.6l-7.2-39.8c-0.2-0.8-0.9-1.4-1.7-1.4
				c-0.8,0-1.4,0.5-1.7,1.2l-12.6,39c0,0.1-0.1,0.2-0.2,0.2c-0.1,0-0.2,0-0.2-0.2l-5.8-32.3c-0.2-0.8-0.9-1.4-1.7-1.4
				c-0.6,0-1.1,0.3-1.4,0.7l-7.7,10.2c-0.3,0.4-0.4,0.9-0.3,1.3l3.1,19.5c0,0.1,0,0.2-0.1,0.3l-32.9,14.1c0,0-0.1,0-0.1,0
				c-0.1,0-0.2-0.1-0.2-0.2c-0.1-0.1,0-0.2,0-0.3l26-34.6c0.3-0.4,0.4-0.9,0.3-1.3l-1-6.1c-0.1-0.9-0.9-1.5-1.7-1.5
				c-0.6,0-1.1,0.3-1.4,0.7l-34.2,47.4c-0.1,0.1-0.1,0.1-0.2,0.1c-0.1,0-0.2,0-0.2-0.1c0-0.1-0.1-0.1,0-0.2l4.8-26.2
				c0.1-0.5,0-1-0.4-1.4c-0.3-0.4-0.8-0.6-1.4-0.6c-0.5,0-1,0.3-1.4,0.7l-28.7,38.2c-0.1,0.1-0.1,0.1-0.2,0.1c-0.1,0-0.2,0-0.2-0.1
				c0-0.1-0.1-0.1,0-0.2L89,60c0.1-0.5,0-1-0.4-1.5c-0.3-0.4-0.8-0.7-1.4-0.7c-0.4,0-0.8,0.1-1.1,0.4L81,62.7
				c-0.3,0.3-0.5,0.6-0.6,1l-7.9,39.8c0,0.1-0.1,0.1-0.1,0.2L49.1,117c0,0-0.1,0-0.1,0c-0.1,0-0.1,0-0.2-0.1c0-0.1-0.1-0.1,0-0.2
				L56.2,83c0.1-0.5,0-1.1-0.3-1.5c-0.3-0.4-0.8-0.7-1.4-0.7c-0.4,0-0.8,0.1-1.1,0.4l-8.1,6.6c-0.3,0.2-0.5,0.6-0.6,0.9l-22.3,90.7
				c0,0.2-0.2,0.2-0.2,0.2c-0.1,0-0.2-0.1-0.2-0.2L1.3,119.3c0-0.1,0-0.2,0.1-0.3L39,88.4c0.4-0.3,0.7-0.8,0.6-1.4
				c0-0.5-0.2-1-0.7-1.4L18.3,69.4c-0.1-0.1-0.1-0.2,0-0.3L63.7,9.2c0.1-0.1,0.1-0.1,0.2-0.1c0.1,0,0.2,0,0.2,0.1c0,0,0.1,0.1,0,0.2
				L47.4,77.5c-0.1,0.5,0,1.1,0.3,1.5c0.3,0.4,0.9,0.7,1.4,0.7c0.4,0,0.8-0.1,1.1-0.4l12-9.8c0,0,0.1-0.1,0.2-0.1
				c0.1,0,0.2,0,0.2,0.1c0,0.1,0.1,0.1,0,0.2l-8.1,36.6c-0.1,0.5,0,1.1,0.3,1.5c0.3,0.4,0.8,0.7,1.4,0.7c0.3,0,0.6-0.1,0.9-0.2
				l11.5-6.6c0.4-0.3,0.7-0.7,0.8-1.2l7.8-39.3c0-0.1,0-0.1,0.1-0.1l13.3-11.3c0.3-0.3,0.5-0.6,0.6-1l9.7-47.4
				C101,1.3,101.1,1.2,101.2,1.2 M98.2,42.8c0.4,0,0.8-0.1,1.1-0.4l9.4-8c0.6-0.5,0.8-1.3,0.5-1.9l-5-13.5c-0.3-0.7-0.9-1.1-1.6-1.1
				c-0.8,0-1.5,0.6-1.7,1.4l-4.4,21.4c-0.1,0.5,0,1,0.4,1.5C97.2,42.6,97.7,42.8,98.2,42.8 M41.2,82.5c0.8,0,1.5-0.5,1.7-1.3L55,32
				c0.1-0.5,0-1.1-0.3-1.5c-0.3-0.4-0.9-0.7-1.4-0.7c-0.5,0-1,0.3-1.4,0.7L24,67.3c-0.6,0.8-0.4,1.8,0.3,2.4l15.9,12.5
				C40.5,82.4,40.8,82.5,41.2,82.5 M135.3,79.4c0.2,0,0.5,0,0.7-0.1l12.1-5.2c0.7-0.3,1.2-1.1,1-1.9l-1.4-9
				c-0.1-0.9-0.9-1.5-1.7-1.5c-0.6,0-1.1,0.3-1.4,0.7l-10.7,14.2c-0.4,0.5-0.5,1.2-0.2,1.8C134,79,134.6,79.4,135.3,79.4
				 M21.4,163.4c0.8,0,1.5-0.5,1.7-1.3l16-65.2c0.1-0.5,0-1.1-0.3-1.5c-0.3-0.4-0.9-0.7-1.4-0.7c-0.4,0-0.8,0.1-1.1,0.4l-30,24.4
				c-0.6,0.5-0.8,1.2-0.6,1.9l14,40.8C20,163,20.6,163.4,21.4,163.4 M101.2,0.5c-0.4,0-0.9,0.3-1,0.8l-9.7,47.4
				c0,0.2-0.2,0.4-0.3,0.6L76.9,60.5c-0.2,0.1-0.3,0.3-0.3,0.6l-7.8,39.3c-0.1,0.3-0.2,0.5-0.5,0.7l-11.5,6.6
				c-0.2,0.1-0.3,0.1-0.5,0.1c-0.6,0-1.1-0.6-1-1.2l8.1-36.6c0.2-0.7-0.4-1.2-1-1.2c-0.2,0-0.4,0.1-0.6,0.2l-12,9.8
				c-0.2,0.2-0.4,0.2-0.6,0.2c-0.6,0-1.1-0.6-1-1.2L64.9,9.6c0.2-0.7-0.4-1.2-1-1.2c-0.3,0-0.6,0.1-0.8,0.4L17.6,68.6
				c-0.3,0.4-0.3,1.1,0.2,1.4l20.7,16.3c0.5,0.4,0.5,1.2,0,1.6L0.9,118.4c-0.3,0.3-0.5,0.7-0.3,1.1l20.7,60.2
				c0.2,0.5,0.5,0.7,0.9,0.7c0.4,0,0.8-0.3,1-0.8L45.4,89c0.1-0.2,0.2-0.4,0.3-0.5l8.1-6.6c0.2-0.2,0.4-0.2,0.6-0.2
				c0.6,0,1.1,0.5,1,1.2L48,116.6c-0.1,0.7,0.4,1.2,1,1.2c0.2,0,0.3,0,0.5-0.1l23.3-13.4c0.3-0.1,0.4-0.4,0.5-0.7l7.9-39.8
				c0-0.2,0.2-0.4,0.3-0.6l5.1-4.4c0.2-0.2,0.4-0.2,0.6-0.2c0.6,0,1.1,0.5,1,1.2l-9.1,44.5c-0.1,0.7,0.4,1.2,1,1.2
				c0.3,0,0.6-0.1,0.8-0.4l28.7-38.2c0.2-0.3,0.5-0.4,0.8-0.4c0.6,0,1.1,0.5,1,1.2l-4.8,26.2c-0.1,0.7,0.4,1.2,1,1.2
				c0.3,0,0.6-0.1,0.8-0.4l34.2-47.4c0.2-0.3,0.5-0.4,0.8-0.4c0.5,0,0.9,0.3,1,0.8l1,6.1c0,0.3,0,0.5-0.2,0.8l-26,34.6
				c-0.5,0.7,0,1.6,0.8,1.6c0.1,0,0.3,0,0.4-0.1l32.9-14.1c0.4-0.2,0.7-0.6,0.6-1.1l-3.1-19.5c0-0.3,0-0.5,0.2-0.8l7.7-10.2
				c0.2-0.3,0.5-0.4,0.8-0.4c0.5,0,0.9,0.3,1,0.8l5.8,32.3c0.1,0.5,0.5,0.8,1,0.8c0.4,0,0.8-0.2,0.9-0.7l12.6-39
				c0.2-0.5,0.5-0.7,0.9-0.7c0.4,0,0.9,0.3,1,0.8l7.2,39.8c0.1,0.5,0.4,1.8,1.2,2.2l3.5,1.6c0,0,0.1,0,0.1,0c0.4,0,0.7-0.7,0.7-1.2
				l-11.4-63c-0.1-0.5-0.5-0.8-1-0.8c-0.4,0-0.8,0.2-0.9,0.7l-12.6,39c-0.2,0.5-0.5,0.7-0.9,0.7c-0.4,0-0.9-0.3-1-0.8l-4.3-23.9
				c-0.1-0.5-0.5-0.8-1-0.8c-0.3,0-0.6,0.1-0.8,0.4l-10.5,14c-0.2,0.3-0.5,0.4-0.8,0.4c-0.5,0-0.9-0.3-1-0.8l-1.8-11.3
				c-0.1-0.5-0.5-0.8-1-0.8c-0.3,0-0.6,0.1-0.8,0.4l-28.4,39.3c-0.2,0.3-0.5,0.4-0.8,0.4c-0.6,0-1.1-0.5-1-1.2l4.6-25.3
				c0.1-0.7-0.4-1.2-1-1.2c-0.3,0-0.6,0.1-0.8,0.4L90.3,84.3c-0.2,0.3-0.5,0.4-0.8,0.4c-0.6,0-1.1-0.5-1-1.2L94.9,52
				c0-0.2,0.2-0.4,0.3-0.6l18.8-16.1c0.3-0.3,0.4-0.7,0.3-1.1L102.1,1.2C101.9,0.7,101.6,0.5,101.2,0.5L101.2,0.5z M98.2,42.1
				c-0.6,0-1.1-0.5-1-1.2l4.4-21.4c0.1-0.5,0.5-0.8,1-0.8c0.4,0,0.8,0.2,0.9,0.7l5,13.5c0.1,0.4,0,0.8-0.3,1.1l-9.4,8
				C98.6,42,98.4,42.1,98.2,42.1L98.2,42.1z M41.2,81.8c-0.2,0-0.4-0.1-0.6-0.2L24.8,69.1c-0.4-0.3-0.5-1-0.2-1.4l28-36.8
				c0.2-0.3,0.5-0.4,0.8-0.4c0.6,0,1.2,0.5,1,1.2L42.2,81C42.1,81.5,41.7,81.8,41.2,81.8L41.2,81.8z M135.3,78.6
				c-0.8,0-1.3-0.9-0.8-1.6l10.7-14.2c0.2-0.3,0.5-0.4,0.8-0.4c0.5,0,0.9,0.3,1,0.8l1.4,9c0.1,0.5-0.2,0.9-0.6,1.1l-12.1,5.2
				C135.6,78.6,135.4,78.6,135.3,78.6L135.3,78.6z M21.4,162.7c-0.4,0-0.8-0.2-0.9-0.7l-14-40.8c-0.1-0.4,0-0.8,0.3-1.1l30-24.4
				c0.2-0.2,0.4-0.2,0.6-0.2c0.6,0,1.1,0.6,1,1.2l-16,65.2C22.2,162.4,21.8,162.7,21.4,162.7L21.4,162.7z"/>
		</g>
	</g>
	<g>
		<path class="st5" d="M126.5,36.1l-4.2,2.5c-0.8,0.5-1.8-0.4-1.4-1.3l8.2-17.8c0.2-0.5,0.7-1,1.2-1.3l4-2.3
			c0.8-0.5,1.8,0.4,1.4,1.3l-8.3,18C127.1,35.5,126.8,35.9,126.5,36.1z"/>
	</g>
</g>
<g id="Layer_2">
	<g>
		<path class="st2" d="M412.1,49.7l-20.5,4.4c-0.7,0.1-1.3-0.4-1.2-1.1l1.4-10.8c0.1-0.4,0.4-0.8,0.8-0.8l26.7-6
			c0.5-0.1,0.9-0.7,0.8-1.2l-0.7-2.9c-0.1-0.5-0.7-0.9-1.2-0.8l-43.5,9.8c-0.7,0.2-1.3-0.4-1.2-1.1l1.9-12.1
			c0.1-0.4,0.4-0.7,0.7-0.8l37.1-9.5c0.5-0.1,0.9-0.7,0.7-1.2l-0.7-2.9c-0.1-0.5-0.7-0.9-1.2-0.7l-40.3,10.3
			c-0.4,0.1-0.7,0.4-0.7,0.8l-8.4,55.2c-0.1,0.8-1,1.1-1.6,0.6l-12.1-9.5c-0.5-0.4-0.5-1.1,0-1.5l11.8-10.4c0.4-0.4,0.5-1.1,0-1.5
			l-16.3-15.9c-0.4-0.4-1-0.4-1.4,0L326,56.2c-0.4,0.4-0.4,1.1,0.1,1.5l13,10.2c0.5,0.4,0.5,1.1,0,1.5L321.5,85
			c-0.6,0.6-1.7,0.1-1.7-0.8l0.5-40.1c0-0.3,0.1-0.6,0.4-0.8l14.2-11.3c0.4-0.4,0.5-1,0.1-1.4l-17.6-20.3c-0.6-0.7-1.7-0.3-1.8,0.6
			l-0.4,29.8c0,0.3-0.1,0.6-0.4,0.8l-9.5,7.5c-0.5,0.4-1.3,0.2-1.5-0.4l-17.2-40c-0.4-0.9-1.8-0.7-1.9,0.3l-6.1,61
			c0,0.3-0.2,0.5-0.4,0.7l-12.2,9.7c-0.6,0.5-1.5,0.1-1.6-0.7l-1.4-10.4c-0.1-0.7-0.9-1.1-1.5-0.7l-26.5,15.9
			c-0.5,0.3-0.6,0.9-0.3,1.4l1.5,2.6c0.3,0.5,0.9,0.6,1.4,0.3l20-12c0.6-0.4,1.4,0,1.5,0.7l0.9,7c0,0.3-0.1,0.7-0.4,0.9l-35.6,28.3
			c-0.8,0.7-0.2,2,0.9,1.7l41.9-10.9c0.5-0.1,0.8-0.6,0.7-1.1l-2-15.7c0-0.3,0.1-0.7,0.4-0.9l10.2-8.1c0.7-0.5,1.7,0,1.6,0.9
			l-2,20.2c-0.1,0.9,0.9,1.4,1.6,0.9l32.2-24.5c0.5-0.4,0.5-1.1,0-1.6L297,63.9c-0.5-0.4-0.5-1.1,0-1.5l16.7-13.3
			c0.7-0.5,1.6,0,1.6,0.8l-0.6,45.6c0,0.9,1,1.3,1.7,0.8l27.1-23.9c0.4-0.3,0.9-0.3,1.3,0l19.9,15.6c0.6,0.5,1.5,0.1,1.6-0.6
			l6.2-40.8c0.1-0.4,0.4-0.7,0.8-0.8l12.2-2.7c0.7-0.2,1.3,0.4,1.2,1.1l-7.5,57.3c-0.1,0.5,0.3,1,0.9,1.1l3,0.4
			c0.5,0.1,1-0.3,1.1-0.9l5.5-41.7c0.1-0.4,0.4-0.8,0.8-0.8l22.9-4.9c0.5-0.1,0.9-0.6,0.8-1.2l-0.6-2.9
			C413.1,49.9,412.6,49.6,412.1,49.7z M322.3,23.6l5.5,6.4c0.4,0.4,0.3,1.1-0.1,1.4l-5.7,4.5c-0.7,0.5-1.6,0-1.6-0.8l0.1-10.9
			C320.6,23.3,321.7,22.9,322.3,23.6z M245.9,103l13.8-11c0.6-0.5,1.5-0.1,1.6,0.7l0.9,7.1c0.1,0.5-0.3,1-0.7,1.1l-14.7,3.9
			C245.7,105,245,103.7,245.9,103z M289.9,28.5l10.3,24c0.2,0.4,0.1,0.9-0.3,1.2l-13.8,11c-0.7,0.5-1.7,0-1.6-0.9l3.5-35
			C288.1,27.7,289.5,27.5,289.9,28.5z M301.7,76.1l-18.2,13.8c-0.7,0.5-1.7,0-1.6-0.9l1.6-15.6c0-0.3,0.2-0.5,0.4-0.7l7.5-6
			c0.4-0.3,0.9-0.3,1.3,0l9.1,7.8C302.2,75,302.2,75.7,301.7,76.1z M343.2,64.8l-9.5-7.5c-0.5-0.4-0.5-1.1-0.1-1.5l9.2-8.9
			c0.4-0.4,1-0.4,1.4,0l9,8.7c0.4,0.4,0.4,1.1,0,1.5l-8.7,7.7C344.1,65.1,343.6,65.1,343.2,64.8z"/>
		<path class="st2" d="M272.8,61l-23.6-40.5c-0.4-0.7-1.5-0.6-1.8,0.1L230.1,64c-0.1,0.3-0.4,0.6-0.8,0.6l-16.1,2.7
			c-0.5,0.1-0.9,0.6-0.8,1.2l0.5,3c0.1,0.5,0.6,0.9,1.2,0.8l11.9-2c0.8-0.1,1.4,0.6,1.1,1.4l-19,47.9c-0.2,0.5,0,1.1,0.6,1.3
			l2.8,1.1c0.5,0.2,1.1,0,1.3-0.6l20.6-51.9c0.1-0.3,0.4-0.6,0.8-0.6l38-6.4C272.8,62.4,273.1,61.6,272.8,61z M250,31.9l14.8,25.4
			c0.4,0.6,0,1.4-0.7,1.5l-26.7,4.5c-0.8,0.1-1.4-0.6-1.1-1.4L248.2,32C248.5,31.3,249.6,31.2,250,31.9z"/>
	</g>
	<g>
		<g>
			<path class="st3" d="M222.9,110c-0.3,0-0.5-0.2-0.6-0.4c0-0.1-0.1-0.4,0.2-0.7l35.6-28.3c0.4-0.3,0.6-0.8,0.5-1.3l-0.9-7
				c-0.1-0.7-0.7-1.2-1.4-1.2c-0.2,0-0.5,0.1-0.7,0.2l-20,12c-0.1,0.1-0.2,0.1-0.3,0.1c-0.2,0-0.4-0.1-0.5-0.3l-1.5-2.6
				c-0.1-0.1-0.1-0.3-0.1-0.5c0-0.2,0.1-0.3,0.3-0.4L260,63.7c0.1-0.1,0.2-0.1,0.3-0.1c0.3,0,0.6,0.2,0.6,0.5l1.4,10.4
				c0.1,0.7,0.7,1.2,1.4,1.2c0.3,0,0.6-0.1,0.9-0.3l12.2-9.7c0.3-0.2,0.5-0.6,0.5-0.9l6.1-61c0-0.4,0.4-0.6,0.6-0.6
				c0.1,0,0.4,0,0.6,0.4l17.2,40c0.2,0.5,0.7,0.8,1.3,0.8c0.3,0,0.6-0.1,0.9-0.3l9.5-7.5c0.3-0.3,0.5-0.6,0.5-1.1l0.4-29.8
				c0-0.4,0.3-0.6,0.6-0.6c0.1,0,0.3,0,0.5,0.2l17.6,20.3c0.1,0.1,0.2,0.3,0.1,0.5c0,0.2-0.1,0.3-0.2,0.4l-14.2,11.3
				c-0.3,0.3-0.5,0.6-0.5,1.1l-0.5,40.1c0,0.4,0.1,0.7,0.4,1c0.3,0.3,0.6,0.4,1,0.4c0.3,0,0.6-0.1,0.9-0.3l17.7-15.6
				c0.3-0.3,0.5-0.7,0.5-1.1s-0.2-0.8-0.5-1l-13-10.2c-0.1-0.1-0.2-0.3-0.2-0.5c0-0.2,0.1-0.4,0.2-0.5L341.2,35
				c0.1-0.1,0.3-0.2,0.4-0.2c0.2,0,0.3,0.1,0.4,0.2l16.3,15.9c0.1,0.1,0.2,0.3,0.2,0.5c0,0.2-0.1,0.3-0.2,0.5l-11.8,10.4
				c-0.3,0.3-0.5,0.7-0.5,1.1s0.2,0.8,0.5,1l12.1,9.5c0.2,0.2,0.5,0.3,0.8,0.3c0.7,0,1.3-0.5,1.4-1.2l8.4-55.2
				c0-0.2,0.2-0.4,0.5-0.5l40.3-10.3c0.1,0,0.1,0,0.2,0c0.3,0,0.5,0.2,0.6,0.5l0.7,2.9c0.1,0.3-0.1,0.7-0.4,0.8l-37.1,9.5
				c-0.5,0.1-0.9,0.6-1,1.1l-1.9,12.1c-0.1,0.4,0.1,0.8,0.3,1.1c0.3,0.3,0.6,0.5,1,0.5c0.1,0,0.2,0,0.3,0l43.5-9.8c0,0,0.1,0,0.1,0
				c0.3,0,0.5,0.2,0.6,0.5l0.7,2.9c0.1,0.3-0.1,0.7-0.5,0.7l-26.7,6c-0.6,0.1-1,0.6-1.1,1.2l-1.4,10.8c-0.1,0.4,0.1,0.8,0.3,1.1
				c0.3,0.3,0.6,0.5,1,0.5c0.1,0,0.2,0,0.3,0l20.5-4.4c0,0,0.1,0,0.1,0c0.3,0,0.5,0.2,0.6,0.5l0.6,2.9c0,0.2,0,0.3-0.1,0.5
				c-0.1,0.1-0.2,0.2-0.4,0.3l-22.9,4.9c-0.6,0.1-1,0.6-1.1,1.2l-5.5,41.7c0,0.3-0.3,0.5-0.6,0.5l-3.1-0.4c-0.2,0-0.3-0.1-0.4-0.2
				c-0.1-0.1-0.1-0.3-0.1-0.5l7.5-57.3c0.1-0.4-0.1-0.8-0.3-1.1c-0.3-0.3-0.6-0.5-1-0.5c-0.1,0-0.2,0-0.3,0l-12.2,2.7
				c-0.6,0.1-1,0.6-1.1,1.1L363.8,82c-0.1,0.3-0.4,0.5-0.6,0.5c-0.1,0-0.3,0-0.4-0.1L343,66.8c-0.2-0.2-0.5-0.3-0.8-0.3
				c-0.3,0-0.7,0.1-0.9,0.3l-27.1,23.9c-0.1,0.1-0.3,0.2-0.4,0.2c-0.2,0-0.3-0.1-0.5-0.2c-0.1-0.1-0.2-0.2-0.2-0.4l0.6-45.6
				c0-0.4-0.1-0.7-0.4-1c-0.3-0.3-0.6-0.4-1-0.4c-0.3,0-0.6,0.1-0.8,0.3l-16.7,13.3c-0.3,0.3-0.5,0.6-0.5,1.1c0,0.4,0.2,0.8,0.5,1.1
				l12.7,10.9c0.1,0.1,0.2,0.3,0.2,0.5c0,0.2-0.1,0.4-0.2,0.5l-32.2,24.5c-0.1,0.1-0.2,0.1-0.4,0.1c-0.2,0-0.4-0.1-0.5-0.2
				c-0.1-0.1-0.2-0.2-0.2-0.5l2-20.2c0-0.4-0.1-0.8-0.3-1.1c-0.3-0.3-0.6-0.5-1-0.5c-0.3,0-0.6,0.1-0.8,0.3l-10.2,8.1
				c-0.4,0.3-0.6,0.8-0.5,1.3l2,15.7c0,0.3-0.2,0.6-0.5,0.7L223.1,110C223,110,223,110,222.9,110z M258.3,86.2
				c-0.3,0-0.6,0.1-0.9,0.3l-13.8,11c-0.5,0.4-0.6,1-0.4,1.5c0.2,0.6,0.7,0.9,1.3,0.9c0.1,0,0.2,0,0.4,0l14.7-3.9
				c0.7-0.2,1.1-0.8,1-1.5l-0.9-7.1C259.6,86.7,259,86.2,258.3,86.2z M290.1,60.9c-0.3,0-0.6,0.1-0.9,0.3l-7.5,6
				c-0.3,0.2-0.5,0.6-0.5,0.9l-1.6,15.6c0,0.4,0.1,0.8,0.3,1.1c0.3,0.3,0.6,0.5,1,0.5c0.3,0,0.6-0.1,0.8-0.3L300,71.2
				c0.3-0.3,0.5-0.6,0.5-1.1c0-0.4-0.2-0.8-0.5-1.1l-9.1-7.8C290.7,61.1,290.4,60.9,290.1,60.9z M341.6,41c-0.4,0-0.7,0.1-1,0.4
				l-9.2,8.9c-0.3,0.3-0.4,0.7-0.4,1.1c0,0.4,0.2,0.8,0.5,1l9.5,7.5c0.2,0.2,0.5,0.3,0.8,0.3c0.3,0,0.7-0.1,0.9-0.3l8.7-7.7
				c0.3-0.3,0.5-0.6,0.5-1c0-0.4-0.1-0.8-0.4-1l-9-8.7C342.3,41.1,342,41,341.6,41z M287,22.3c-0.6,0-1.3,0.4-1.4,1.2l-3.5,35
				c0,0.4,0.1,0.8,0.3,1.1c0.3,0.3,0.6,0.5,1,0.5c0.3,0,0.6-0.1,0.9-0.3l13.8-11c0.5-0.4,0.7-1,0.4-1.6l-10.3-24
				C288.1,22.6,287.6,22.3,287,22.3z M319.7,17.7c-0.7,0-1.4,0.5-1.4,1.4l-0.1,10.9c0,0.4,0.1,0.7,0.4,1c0.3,0.3,0.6,0.4,1,0.4
				c0.3,0,0.6-0.1,0.9-0.3l5.7-4.5c0.3-0.2,0.5-0.6,0.5-0.9s-0.1-0.7-0.3-1l-5.5-6.4C320.4,17.8,320.1,17.7,319.7,17.7z"/>
			<path class="st4" d="M284,3.6c0.2,0,0.2,0.1,0.2,0.2l17.2,40c0.3,0.6,0.9,1.1,1.6,1.1c0.4,0,0.8-0.1,1.1-0.4l9.5-7.5
				c0.4-0.3,0.7-0.8,0.7-1.3l0.4-29.8c0-0.2,0.2-0.2,0.3-0.2c0.1,0,0.1,0,0.2,0.1L332.6,26c0.1,0.1,0.1,0.1,0.1,0.2s0,0.1-0.1,0.2
				l-14.2,11.3c-0.4,0.3-0.7,0.8-0.7,1.3l-0.5,40.1c0,0.5,0.2,0.9,0.5,1.2c0.3,0.3,0.8,0.5,1.3,0.5c0.4,0,0.8-0.2,1.2-0.4l17.7-15.6
				c0.4-0.3,0.6-0.8,0.6-1.4s-0.3-1-0.7-1.3l-13-10.2c-0.1-0.1-0.1-0.1-0.1-0.2c0,0,0-0.1,0.1-0.2l16.8-16.3
				c0.1-0.1,0.1-0.1,0.2-0.1c0,0,0.1,0,0.2,0.1l16.3,15.9c0.1,0.1,0.1,0.1,0.1,0.2c0,0,0,0.1-0.1,0.2l-11.8,10.4
				c-0.4,0.3-0.6,0.8-0.6,1.4c0,0.5,0.3,1,0.7,1.3l12.1,9.5c0.3,0.2,0.7,0.4,1.1,0.4c0.9,0,1.6-0.6,1.7-1.5l8.4-55.2
				c0-0.1,0.1-0.2,0.2-0.2l40.3-10.3c0,0,0,0,0.1,0c0.1,0,0.2,0.1,0.2,0.2l0.7,2.9c0,0.1,0,0.3-0.2,0.3L374,20.2
				c-0.7,0.2-1.2,0.7-1.3,1.4l-1.9,12.1c-0.1,0.5,0.1,1,0.4,1.4c0.3,0.4,0.8,0.6,1.3,0.6c0.1,0,0.3,0,0.4,0l43.5-9.8c0,0,0,0,0.1,0
				c0.1,0,0.2,0.1,0.2,0.2l0.7,2.9c0,0.1-0.1,0.3-0.2,0.3l-26.7,6c-0.7,0.2-1.3,0.8-1.4,1.5l-1.4,10.8c-0.1,0.5,0.1,1,0.4,1.4
				c0.3,0.4,0.8,0.6,1.3,0.6c0.1,0,0.2,0,0.4,0l20.5-4.4c0,0,0,0,0.1,0c0.1,0,0.2,0.1,0.2,0.2l0.6,2.9c0,0.1-0.1,0.3-0.2,0.3
				l-22.9,4.9c-0.7,0.2-1.3,0.8-1.4,1.5l-5.5,41.7c0,0.1-0.1,0.2-0.3,0.2c0,0,0,0,0,0l-3-0.4c-0.1,0-0.1-0.1-0.2-0.1
				c0,0-0.1-0.1,0-0.2l7.5-57.3c0.1-0.5-0.1-1-0.4-1.4c-0.3-0.4-0.8-0.6-1.3-0.6c-0.1,0-0.3,0-0.4,0L371,39.7
				c-0.7,0.2-1.2,0.7-1.3,1.4l-6.2,40.8c0,0.2-0.2,0.2-0.2,0.2c-0.1,0-0.1,0-0.1-0.1l-19.9-15.6c-0.3-0.2-0.7-0.4-1.1-0.4
				c-0.4,0-0.8,0.2-1.2,0.4l-27.1,23.9c0,0-0.1,0.1-0.2,0.1c-0.1,0-0.1,0-0.2-0.1c0,0-0.1-0.1-0.1-0.2l0.6-45.6
				c0-0.5-0.2-0.9-0.5-1.2c-0.3-0.3-0.8-0.5-1.3-0.5c-0.4,0-0.8,0.1-1.1,0.4l-16.7,13.3c-0.4,0.3-0.6,0.8-0.7,1.3
				c0,0.5,0.2,1,0.6,1.4l12.7,10.9c0.1,0.1,0.1,0.2,0.1,0.2c0,0,0,0.1-0.1,0.2L275,95c0,0-0.1,0.1-0.1,0.1c-0.1,0-0.1,0-0.2-0.1
				c0-0.1-0.1-0.1-0.1-0.2l2-20.2c0-0.5-0.1-1-0.4-1.3c-0.3-0.4-0.8-0.6-1.3-0.6c-0.4,0-0.8,0.1-1.1,0.4l-10.2,8.1
				c-0.5,0.4-0.7,1-0.6,1.6l2,15.7c0,0.1-0.1,0.2-0.2,0.3L223,109.6c0,0-0.1,0-0.1,0c-0.2,0-0.2-0.2-0.2-0.2c-0.1-0.2,0-0.2,0.1-0.3
				l35.6-28.3c0.5-0.4,0.7-1,0.6-1.6l-0.9-7c-0.1-0.9-0.9-1.5-1.7-1.5c-0.3,0-0.6,0.1-0.9,0.3l-20,12c0,0-0.1,0-0.1,0
				c-0.1,0-0.2,0-0.2-0.1l-1.5-2.6c-0.1-0.1,0-0.3,0.1-0.3L260.2,64c0,0,0.1,0,0.1,0c0.1,0,0.2,0.1,0.2,0.2l1.4,10.4
				c0.1,0.9,0.9,1.5,1.7,1.5c0.4,0,0.8-0.1,1.1-0.4L277,66c0.4-0.3,0.6-0.7,0.7-1.2l6.1-61C283.8,3.6,283.9,3.6,284,3.6L284,3.6
				 M319.5,31.7c0.4,0,0.8-0.1,1.1-0.4l5.7-4.5c0.4-0.3,0.6-0.7,0.7-1.2c0-0.5-0.1-0.9-0.4-1.3l-5.5-6.4c-0.3-0.4-0.8-0.6-1.3-0.6
				c-1,0-1.7,0.8-1.8,1.7l-0.1,10.9c0,0.5,0.2,0.9,0.5,1.2C318.6,31.5,319,31.7,319.5,31.7 M283.5,60.3c0.4,0,0.8-0.1,1.1-0.4
				l13.8-11c0.6-0.5,0.8-1.3,0.5-2.1l-10.3-24c-0.3-0.7-0.9-1.1-1.6-1.1c-0.9,0-1.7,0.7-1.7,1.6l-3.5,35c0,0.5,0.1,1,0.4,1.3
				C282.6,60.1,283,60.3,283.5,60.3 M341.9,60.5c0.4,0,0.8-0.2,1.2-0.4l8.7-7.7c0.4-0.3,0.6-0.8,0.6-1.3c0-0.5-0.2-1-0.5-1.3l-9-8.7
				c-0.3-0.3-0.8-0.5-1.2-0.5c-0.5,0-0.9,0.2-1.2,0.5l-9.2,8.9c-0.4,0.4-0.6,0.8-0.5,1.3c0,0.5,0.3,1,0.7,1.3l9.5,7.5
				C341.1,60.4,341.5,60.5,341.9,60.5 M281,85.6c0.4,0,0.7-0.1,1.1-0.4l18.2-13.8c0.4-0.3,0.7-0.8,0.7-1.3c0-0.5-0.2-1-0.6-1.4
				l-9.1-7.8c-0.3-0.3-0.7-0.4-1.1-0.4c-0.4,0-0.8,0.1-1.1,0.4l-7.5,6c-0.4,0.3-0.6,0.7-0.7,1.2l-1.6,15.6c0,0.5,0.1,1,0.4,1.3
				C280,85.4,280.5,85.6,281,85.6 M244.5,100.3c0.2,0,0.3,0,0.5-0.1l14.7-3.9c0.8-0.2,1.4-1,1.3-1.9l-0.9-7.1
				c-0.1-0.9-0.9-1.5-1.7-1.5c-0.4,0-0.8,0.1-1.1,0.4l-13.8,11c-0.6,0.5-0.8,1.2-0.6,1.9C243.1,99.8,243.8,100.3,244.5,100.3
				 M284,2.9c-0.5,0-0.9,0.3-1,0.9l-6.1,61c0,0.3-0.2,0.5-0.4,0.7l-12.2,9.7c-0.2,0.1-0.4,0.2-0.6,0.2c-0.5,0-0.9-0.3-1-0.9
				l-1.4-10.4c-0.1-0.5-0.5-0.9-1-0.9c-0.2,0-0.3,0-0.5,0.1l-26.5,15.9c-0.5,0.3-0.6,0.9-0.3,1.4l1.5,2.6c0.2,0.3,0.5,0.5,0.9,0.5
				c0.2,0,0.4,0,0.5-0.1l20-12c0.2-0.1,0.3-0.1,0.5-0.1c0.5,0,0.9,0.3,1,0.9l0.9,7c0,0.3-0.1,0.7-0.4,0.9l-35.6,28.3
				c-0.8,0.6-0.3,1.8,0.6,1.8c0.1,0,0.2,0,0.3,0l41.9-10.9c0.5-0.1,0.8-0.6,0.7-1.1l-2-15.7c0-0.3,0.1-0.7,0.4-0.9l10.2-8.1
				c0.2-0.2,0.4-0.2,0.6-0.2c0.5,0,1.1,0.5,1,1.1l-2,20.2c-0.1,0.6,0.4,1.1,1,1.1c0.2,0,0.4-0.1,0.6-0.2l32.2-24.5
				c0.5-0.4,0.5-1.1,0-1.6L295,58.6c-0.5-0.4-0.5-1.1,0-1.5l16.7-13.3c0.2-0.2,0.4-0.2,0.6-0.2c0.5,0,1,0.4,1,1l-0.6,45.6
				c0,0.6,0.5,1,1,1c0.2,0,0.5-0.1,0.7-0.3l27.1-23.9c0.2-0.2,0.4-0.3,0.7-0.3c0.2,0,0.4,0.1,0.6,0.2l19.9,15.6
				c0.2,0.1,0.4,0.2,0.6,0.2c0.5,0,0.9-0.3,1-0.8l6.2-40.8c0.1-0.4,0.4-0.7,0.8-0.8l12.2-2.7c0.1,0,0.1,0,0.2,0c0.6,0,1.1,0.5,1,1.1
				l-7.5,57.3c-0.1,0.5,0.3,1,0.9,1.1l3,0.4c0,0,0.1,0,0.1,0c0.5,0,0.9-0.4,1-0.9l5.5-41.7c0.1-0.4,0.4-0.8,0.8-0.8l22.9-4.9
				c0.5-0.1,0.9-0.6,0.8-1.2l-0.6-2.9c-0.1-0.5-0.5-0.8-1-0.8c-0.1,0-0.1,0-0.2,0l-20.5,4.4c-0.1,0-0.1,0-0.2,0
				c-0.6,0-1.1-0.5-1-1.1l1.4-10.8c0.1-0.4,0.4-0.8,0.8-0.8l26.7-6c0.5-0.1,0.9-0.7,0.8-1.2l-0.7-2.9c-0.1-0.5-0.5-0.8-1-0.8
				c-0.1,0-0.1,0-0.2,0L372.8,35c-0.1,0-0.1,0-0.2,0c-0.6,0-1.1-0.5-1-1.1l1.9-12.1c0.1-0.4,0.4-0.7,0.7-0.8l37.1-9.5
				c0.5-0.1,0.9-0.7,0.7-1.2l-0.7-2.9c-0.1-0.5-0.5-0.8-1-0.8c-0.1,0-0.2,0-0.2,0l-40.3,10.3c-0.4,0.1-0.7,0.4-0.7,0.8l-8.4,55.2
				c-0.1,0.5-0.5,0.8-1,0.8c-0.2,0-0.4-0.1-0.6-0.2L346.9,64c-0.5-0.4-0.5-1.1,0-1.5L358.6,52c0.4-0.4,0.5-1.1,0-1.5l-16.3-15.9
				c-0.2-0.2-0.4-0.3-0.7-0.3c-0.3,0-0.5,0.1-0.7,0.3L324.1,51c-0.4,0.4-0.4,1.1,0.1,1.5l13,10.2c0.5,0.4,0.5,1.1,0,1.5l-17.7,15.6
				c-0.2,0.2-0.4,0.3-0.7,0.3c-0.5,0-1-0.4-1-1l0.5-40.1c0-0.3,0.1-0.6,0.4-0.8L333,26.9c0.4-0.4,0.5-1,0.1-1.4L315.6,5.2
				c-0.2-0.2-0.5-0.3-0.7-0.3c-0.5,0-1,0.4-1,1l-0.4,29.8c0,0.3-0.1,0.6-0.4,0.8l-9.5,7.5c-0.2,0.1-0.4,0.2-0.6,0.2
				c-0.4,0-0.8-0.2-0.9-0.6l-17.2-40C284.7,3,284.4,2.9,284,2.9L284,2.9z M319.5,31c-0.5,0-1-0.4-1-1l0.1-10.9c0-0.6,0.5-1,1-1
				c0.3,0,0.5,0.1,0.7,0.3l5.5,6.4c0.4,0.4,0.3,1.1-0.1,1.4l-5.7,4.5C319.9,30.9,319.7,31,319.5,31L319.5,31z M283.5,59.6
				c-0.5,0-1.1-0.5-1-1.1l3.5-35c0.1-0.6,0.5-0.9,1-0.9c0.4,0,0.7,0.2,0.9,0.6l10.3,24c0.2,0.4,0.1,0.9-0.3,1.2l-13.8,11
				C284,59.5,283.8,59.6,283.5,59.6L283.5,59.6z M341.9,59.8c-0.2,0-0.4-0.1-0.6-0.2l-9.5-7.5c-0.5-0.4-0.5-1.1-0.1-1.5l9.2-8.9
				c0.2-0.2,0.4-0.3,0.7-0.3c0.3,0,0.5,0.1,0.7,0.3l9,8.7c0.4,0.4,0.4,1.1,0,1.5l-8.7,7.7C342.3,59.7,342.1,59.8,341.9,59.8
				L341.9,59.8z M281,84.9c-0.6,0-1.1-0.5-1-1.1l1.6-15.6c0-0.3,0.2-0.5,0.4-0.7l7.5-6c0.2-0.1,0.4-0.2,0.6-0.2
				c0.2,0,0.5,0.1,0.6,0.2l9.1,7.8c0.5,0.4,0.5,1.2,0,1.6l-18.2,13.8C281.4,84.8,281.2,84.9,281,84.9L281,84.9z M244.5,99.6
				c-0.9,0-1.4-1.2-0.6-1.8l13.8-11c0.2-0.1,0.4-0.2,0.6-0.2c0.5,0,0.9,0.3,1,0.9l0.9,7.1c0.1,0.5-0.3,1-0.7,1.1l-14.7,3.9
				C244.7,99.5,244.6,99.6,244.5,99.6L244.5,99.6z"/>
		</g>
		<g>
			<path class="st3" d="M209.9,116.4c-0.1,0-0.2,0-0.2,0l-2.8-1.1c-0.2-0.1-0.3-0.2-0.3-0.3c-0.1-0.2-0.1-0.3,0-0.5l19-47.9
				c0.2-0.4,0.1-0.9-0.1-1.3c-0.3-0.4-0.7-0.6-1.1-0.6c-0.1,0-0.2,0-0.2,0l-11.9,2c0,0-0.1,0-0.1,0c-0.3,0-0.6-0.2-0.6-0.5l-0.5-3
				c0-0.2,0-0.3,0.1-0.5c0.1-0.1,0.2-0.2,0.4-0.3l16.1-2.7c0.5-0.1,0.9-0.4,1-0.8l17.2-43.4c0.1-0.3,0.4-0.4,0.6-0.4
				c0.2,0,0.4,0.1,0.5,0.3l23.6,40.5c0.1,0.2,0.1,0.4,0,0.6c-0.1,0.2-0.3,0.3-0.5,0.4l-38,6.4c-0.5,0.1-0.9,0.4-1,0.8L210.5,116
				C210.4,116.3,210.1,116.4,209.9,116.4L209.9,116.4z M247.2,25.8c-0.6,0-1.1,0.3-1.3,0.9l-11.9,29.9c-0.2,0.4-0.1,0.9,0.1,1.3
				c0.3,0.4,0.7,0.6,1.1,0.6c0.1,0,0.2,0,0.2,0l26.7-4.5c0.4-0.1,0.8-0.4,1-0.8c0.2-0.4,0.2-0.9-0.1-1.3l-14.8-25.4
				C248.1,26.1,247.7,25.8,247.2,25.8z"/>
			<path class="st4" d="M246.3,15.5c0.1,0,0.2,0,0.2,0.1l23.6,40.5c0.1,0.1,0,0.2,0,0.2c0,0-0.1,0.1-0.2,0.1l-38,6.4
				c-0.6,0.1-1.1,0.5-1.3,1.1l-20.6,51.9c0,0.1-0.2,0.2-0.2,0.2c0,0-0.1,0-0.1,0l-2.8-1.1c-0.1,0-0.1-0.1-0.1-0.1c0,0,0-0.1,0-0.2
				l19-47.9c0.2-0.5,0.1-1.1-0.2-1.6c-0.3-0.5-0.9-0.8-1.4-0.8c-0.1,0-0.2,0-0.3,0l-11.9,2c-0.1,0-0.2-0.1-0.2-0.2l-0.5-3
				c0-0.1,0-0.2,0-0.2c0,0,0.1-0.1,0.2-0.1l16.1-2.7c0.6-0.1,1.1-0.5,1.3-1.1l17.2-43.4C246.2,15.6,246.3,15.5,246.3,15.5
				 M235.3,58.8c0.1,0,0.2,0,0.3,0l26.7-4.5c0.6-0.1,1-0.5,1.3-1c0.2-0.5,0.2-1.1-0.1-1.6l-14.8-25.4c-0.3-0.5-0.9-0.9-1.5-0.9
				c-0.7,0-1.4,0.4-1.6,1.1l-11.9,29.9c-0.2,0.5-0.1,1.1,0.2,1.6C234.2,58.5,234.8,58.8,235.3,58.8 M246.3,14.8
				c-0.4,0-0.8,0.2-0.9,0.6l-17.2,43.4c-0.1,0.3-0.4,0.6-0.8,0.6l-16.1,2.7c-0.5,0.1-0.9,0.6-0.8,1.2l0.5,3c0.1,0.5,0.5,0.8,1,0.8
				c0.1,0,0.1,0,0.2,0l11.9-2c0.1,0,0.1,0,0.2,0c0.7,0,1.2,0.7,0.9,1.4l-19,47.9c-0.2,0.5,0,1.1,0.6,1.3l2.8,1.1
				c0.1,0,0.2,0.1,0.4,0.1c0.4,0,0.8-0.2,0.9-0.6l20.6-51.9c0.1-0.3,0.4-0.6,0.8-0.6l38-6.4c0.7-0.1,1-0.9,0.7-1.5l-23.6-40.5
				C247,15,246.7,14.8,246.3,14.8L246.3,14.8z M235.3,58.1c-0.7,0-1.2-0.7-0.9-1.4l11.9-29.9c0.2-0.4,0.5-0.6,0.9-0.6
				c0.3,0,0.7,0.2,0.9,0.5L262.9,52c0.4,0.6,0,1.4-0.7,1.5L235.5,58C235.4,58.1,235.4,58.1,235.3,58.1L235.3,58.1z"/>
		</g>
	</g>
</g>
</svg>
